<mxfile host="app.diagrams.net" modified="2022-07-26T14:57:56.621Z" agent="5.0 (Macintosh; Intel Mac OS X 10_15_7) AppleWebKit/605.1.15 (KHTML, like Gecko) Version/15.5 Safari/605.1.15" etag="4NZYYLTZd1aELfxKSlxX" version="20.1.1" type="github">
  <diagram id="NaBuMTPUBQU1VlR3Wv_B" name="Page-1">
    <mxGraphModel dx="1298" dy="865" grid="1" gridSize="10" guides="1" tooltips="1" connect="1" arrows="1" fold="1" page="1" pageScale="1" pageWidth="827" pageHeight="1169" math="0" shadow="0">
      <root>
        <mxCell id="0" />
        <mxCell id="1" parent="0" />
        <mxCell id="wvKQeODs4vk5ay4JGyP8-29" value="" style="rounded=0;whiteSpace=wrap;html=1;fillColor=none;dashed=1;" vertex="1" parent="1">
          <mxGeometry x="290" y="29" width="930" height="691" as="geometry" />
        </mxCell>
        <mxCell id="wvKQeODs4vk5ay4JGyP8-2" value="Nakama" style="swimlane;fontStyle=0;childLayout=stackLayout;horizontal=1;startSize=26;fillColor=none;horizontalStack=0;resizeParent=1;resizeParentMax=0;resizeLast=0;collapsible=1;marginBottom=0;" vertex="1" parent="1">
          <mxGeometry x="530" y="290" width="140" height="78" as="geometry" />
        </mxCell>
        <mxCell id="wvKQeODs4vk5ay4JGyP8-3" value="+ Nakame (fork)" style="text;strokeColor=none;fillColor=none;align=left;verticalAlign=top;spacingLeft=4;spacingRight=4;overflow=hidden;rotatable=0;points=[[0,0.5],[1,0.5]];portConstraint=eastwest;" vertex="1" parent="wvKQeODs4vk5ay4JGyP8-2">
          <mxGeometry y="26" width="140" height="26" as="geometry" />
        </mxCell>
        <mxCell id="wvKQeODs4vk5ay4JGyP8-4" value="+ plugins" style="text;strokeColor=none;fillColor=none;align=left;verticalAlign=top;spacingLeft=4;spacingRight=4;overflow=hidden;rotatable=0;points=[[0,0.5],[1,0.5]];portConstraint=eastwest;" vertex="1" parent="wvKQeODs4vk5ay4JGyP8-2">
          <mxGeometry y="52" width="140" height="26" as="geometry" />
        </mxCell>
        <mxCell id="wvKQeODs4vk5ay4JGyP8-9" value="Client" style="swimlane;fontStyle=0;childLayout=stackLayout;horizontal=1;startSize=26;fillColor=none;horizontalStack=0;resizeParent=1;resizeParentMax=0;resizeLast=0;collapsible=1;marginBottom=0;" vertex="1" parent="1">
          <mxGeometry x="80" y="300" width="140" height="52" as="geometry" />
        </mxCell>
        <mxCell id="wvKQeODs4vk5ay4JGyP8-13" value="haproxy" style="swimlane;fontStyle=0;childLayout=stackLayout;horizontal=1;startSize=30;fillColor=none;horizontalStack=0;resizeParent=1;resizeParentMax=0;resizeLast=0;collapsible=1;marginBottom=0;" vertex="1" parent="1">
          <mxGeometry x="320" y="300" width="140" height="56" as="geometry" />
        </mxCell>
        <mxCell id="wvKQeODs4vk5ay4JGyP8-21" value="Recovery" style="swimlane;fontStyle=0;childLayout=stackLayout;horizontal=1;startSize=26;fillColor=none;horizontalStack=0;resizeParent=1;resizeParentMax=0;resizeLast=0;collapsible=1;marginBottom=0;" vertex="1" parent="1">
          <mxGeometry x="780" y="200" width="140" height="52" as="geometry" />
        </mxCell>
        <mxCell id="wvKQeODs4vk5ay4JGyP8-28" value="icon-storage" style="swimlane;fontStyle=0;childLayout=stackLayout;horizontal=1;startSize=26;fillColor=none;horizontalStack=0;resizeParent=1;resizeParentMax=0;resizeLast=0;collapsible=1;marginBottom=0;" vertex="1" parent="1">
          <mxGeometry x="780" y="570" width="140" height="52" as="geometry" />
        </mxCell>
        <mxCell id="wvKQeODs4vk5ay4JGyP8-30" value="Docker&amp;nbsp;" style="text;html=1;align=center;verticalAlign=middle;resizable=0;points=[];autosize=1;strokeColor=none;fillColor=none;" vertex="1" parent="1">
          <mxGeometry x="540" y="50" width="60" height="30" as="geometry" />
        </mxCell>
        <mxCell id="wvKQeODs4vk5ay4JGyP8-31" value="" style="endArrow=classic;html=1;rounded=0;exitX=1;exitY=0.5;exitDx=0;exitDy=0;entryX=0;entryY=0.5;entryDx=0;entryDy=0;" edge="1" parent="1" source="wvKQeODs4vk5ay4JGyP8-9" target="wvKQeODs4vk5ay4JGyP8-13">
          <mxGeometry width="50" height="50" relative="1" as="geometry">
            <mxPoint x="610" y="390" as="sourcePoint" />
            <mxPoint x="660" y="340" as="targetPoint" />
          </mxGeometry>
        </mxCell>
        <mxCell id="wvKQeODs4vk5ay4JGyP8-32" value="" style="endArrow=classic;html=1;rounded=0;exitX=1;exitY=0.5;exitDx=0;exitDy=0;entryX=0;entryY=0.5;entryDx=0;entryDy=0;strokeWidth=15;" edge="1" parent="1" source="wvKQeODs4vk5ay4JGyP8-13" target="wvKQeODs4vk5ay4JGyP8-3">
          <mxGeometry width="50" height="50" relative="1" as="geometry">
            <mxPoint x="230" y="336" as="sourcePoint" />
            <mxPoint x="330" y="338" as="targetPoint" />
          </mxGeometry>
        </mxCell>
        <mxCell id="wvKQeODs4vk5ay4JGyP8-33" value="" style="endArrow=classic;html=1;rounded=0;exitX=1;exitY=0.5;exitDx=0;exitDy=0;entryX=0;entryY=0.077;entryDx=0;entryDy=0;entryPerimeter=0;" edge="1" parent="1" source="wvKQeODs4vk5ay4JGyP8-3">
          <mxGeometry width="50" height="50" relative="1" as="geometry">
            <mxPoint x="470" y="338" as="sourcePoint" />
            <mxPoint x="780" y="318.00199999999995" as="targetPoint" />
          </mxGeometry>
        </mxCell>
        <mxCell id="wvKQeODs4vk5ay4JGyP8-35" value="" style="endArrow=classic;html=1;rounded=0;exitX=0.5;exitY=0;exitDx=0;exitDy=0;entryX=0;entryY=0.25;entryDx=0;entryDy=0;" edge="1" parent="1" source="wvKQeODs4vk5ay4JGyP8-13" target="wvKQeODs4vk5ay4JGyP8-21">
          <mxGeometry width="50" height="50" relative="1" as="geometry">
            <mxPoint x="610" y="390" as="sourcePoint" />
            <mxPoint x="660" y="340" as="targetPoint" />
            <Array as="points">
              <mxPoint x="480" y="200" />
            </Array>
          </mxGeometry>
        </mxCell>
        <mxCell id="wvKQeODs4vk5ay4JGyP8-36" value="" style="endArrow=classic;startArrow=classic;html=1;rounded=0;entryX=0;entryY=0.5;entryDx=0;entryDy=0;exitX=0.5;exitY=0;exitDx=0;exitDy=0;" edge="1" parent="1" source="wvKQeODs4vk5ay4JGyP8-2" target="wvKQeODs4vk5ay4JGyP8-21">
          <mxGeometry width="50" height="50" relative="1" as="geometry">
            <mxPoint x="610" y="390" as="sourcePoint" />
            <mxPoint x="660" y="340" as="targetPoint" />
          </mxGeometry>
        </mxCell>
        <mxCell id="wvKQeODs4vk5ay4JGyP8-37" value="&lt;span style=&quot;&quot;&gt;Redis&lt;/span&gt;" style="shape=cylinder3;whiteSpace=wrap;html=1;boundedLbl=1;backgroundOutline=1;size=15;dashed=1;fillColor=none;" vertex="1" parent="1">
          <mxGeometry x="780" y="276" width="60" height="80" as="geometry" />
        </mxCell>
        <mxCell id="wvKQeODs4vk5ay4JGyP8-39" value="social-media" style="swimlane;fontStyle=0;childLayout=stackLayout;horizontal=1;startSize=26;fillColor=none;horizontalStack=0;resizeParent=1;resizeParentMax=0;resizeLast=0;collapsible=1;marginBottom=0;" vertex="1" parent="1">
          <mxGeometry x="530" y="490" width="140" height="52" as="geometry" />
        </mxCell>
        <mxCell id="wvKQeODs4vk5ay4JGyP8-40" value="" style="endArrow=classic;html=1;rounded=0;exitX=0.5;exitY=1;exitDx=0;exitDy=0;entryX=0.25;entryY=0;entryDx=0;entryDy=0;" edge="1" parent="1" source="wvKQeODs4vk5ay4JGyP8-13" target="wvKQeODs4vk5ay4JGyP8-39">
          <mxGeometry width="50" height="50" relative="1" as="geometry">
            <mxPoint x="610" y="390" as="sourcePoint" />
            <mxPoint x="660" y="340" as="targetPoint" />
          </mxGeometry>
        </mxCell>
        <mxCell id="wvKQeODs4vk5ay4JGyP8-41" value="&lt;span style=&quot;&quot;&gt;MinIO&lt;/span&gt;" style="shape=cylinder3;whiteSpace=wrap;html=1;boundedLbl=1;backgroundOutline=1;size=15;dashed=1;fillColor=none;" vertex="1" parent="1">
          <mxGeometry x="980" y="320" width="60" height="80" as="geometry" />
        </mxCell>
        <mxCell id="wvKQeODs4vk5ay4JGyP8-42" value="&lt;span style=&quot;&quot;&gt;MinIO&lt;/span&gt;" style="shape=cylinder3;whiteSpace=wrap;html=1;boundedLbl=1;backgroundOutline=1;size=15;dashed=1;fillColor=none;" vertex="1" parent="1">
          <mxGeometry x="1000" y="430" width="60" height="80" as="geometry" />
        </mxCell>
        <mxCell id="wvKQeODs4vk5ay4JGyP8-43" value="MinIO" style="shape=cylinder3;whiteSpace=wrap;html=1;boundedLbl=1;backgroundOutline=1;size=15;dashed=1;fillColor=none;" vertex="1" parent="1">
          <mxGeometry x="570" y="610" width="60" height="80" as="geometry" />
        </mxCell>
        <mxCell id="wvKQeODs4vk5ay4JGyP8-44" value="" style="endArrow=classic;html=1;rounded=0;exitX=1;exitY=0.5;exitDx=0;exitDy=0;entryX=0;entryY=0.5;entryDx=0;entryDy=0;" edge="1" parent="1" source="wvKQeODs4vk5ay4JGyP8-4" target="wvKQeODs4vk5ay4JGyP8-28">
          <mxGeometry width="50" height="50" relative="1" as="geometry">
            <mxPoint x="710" y="400" as="sourcePoint" />
            <mxPoint x="760" y="350" as="targetPoint" />
          </mxGeometry>
        </mxCell>
        <mxCell id="wvKQeODs4vk5ay4JGyP8-45" value="" style="endArrow=classic;html=1;rounded=0;exitX=1;exitY=0.5;exitDx=0;exitDy=0;entryX=0;entryY=0;entryDx=0;entryDy=52.5;entryPerimeter=0;" edge="1" parent="1" source="wvKQeODs4vk5ay4JGyP8-28" target="wvKQeODs4vk5ay4JGyP8-41">
          <mxGeometry width="50" height="50" relative="1" as="geometry">
            <mxPoint x="680" y="365" as="sourcePoint" />
            <mxPoint x="790" y="416" as="targetPoint" />
          </mxGeometry>
        </mxCell>
        <mxCell id="wvKQeODs4vk5ay4JGyP8-46" value="" style="endArrow=classic;html=1;rounded=0;exitX=0.5;exitY=1;exitDx=0;exitDy=0;entryX=0.5;entryY=0;entryDx=0;entryDy=0;entryPerimeter=0;exitPerimeter=0;" edge="1" parent="1" source="wvKQeODs4vk5ay4JGyP8-41" target="wvKQeODs4vk5ay4JGyP8-42">
          <mxGeometry width="50" height="50" relative="1" as="geometry">
            <mxPoint x="930" y="416" as="sourcePoint" />
            <mxPoint x="990" y="382.5" as="targetPoint" />
          </mxGeometry>
        </mxCell>
        <mxCell id="wvKQeODs4vk5ay4JGyP8-47" value="" style="endArrow=classic;html=1;rounded=0;exitX=0.5;exitY=1;exitDx=0;exitDy=0;entryX=0.5;entryY=0;entryDx=0;entryDy=0;entryPerimeter=0;" edge="1" parent="1" source="wvKQeODs4vk5ay4JGyP8-39" target="wvKQeODs4vk5ay4JGyP8-43">
          <mxGeometry width="50" height="50" relative="1" as="geometry">
            <mxPoint x="710" y="510" as="sourcePoint" />
            <mxPoint x="760" y="460" as="targetPoint" />
          </mxGeometry>
        </mxCell>
        <mxCell id="wvKQeODs4vk5ay4JGyP8-48" value="" style="endArrow=classic;startArrow=classic;html=1;rounded=0;entryX=0.493;entryY=1.038;entryDx=0;entryDy=0;entryPerimeter=0;exitX=0.5;exitY=0;exitDx=0;exitDy=0;" edge="1" parent="1" source="wvKQeODs4vk5ay4JGyP8-39" target="wvKQeODs4vk5ay4JGyP8-4">
          <mxGeometry width="50" height="50" relative="1" as="geometry">
            <mxPoint x="710" y="510" as="sourcePoint" />
            <mxPoint x="760" y="460" as="targetPoint" />
          </mxGeometry>
        </mxCell>
        <mxCell id="wvKQeODs4vk5ay4JGyP8-50" value="PSQL" style="shape=cylinder3;whiteSpace=wrap;html=1;boundedLbl=1;backgroundOutline=1;size=15;dashed=1;fillColor=none;" vertex="1" parent="1">
          <mxGeometry x="790" y="380" width="60" height="80" as="geometry" />
        </mxCell>
        <mxCell id="wvKQeODs4vk5ay4JGyP8-51" value="" style="endArrow=classic;html=1;rounded=0;exitX=1;exitY=0.5;exitDx=0;exitDy=0;entryX=0;entryY=0.5;entryDx=0;entryDy=0;entryPerimeter=0;" edge="1" parent="1" source="wvKQeODs4vk5ay4JGyP8-3" target="wvKQeODs4vk5ay4JGyP8-50">
          <mxGeometry width="50" height="50" relative="1" as="geometry">
            <mxPoint x="680" y="339" as="sourcePoint" />
            <mxPoint x="790" y="328.00199999999995" as="targetPoint" />
          </mxGeometry>
        </mxCell>
      </root>
    </mxGraphModel>
  </diagram>
</mxfile>
